<svg xmlns="http://www.w3.org/2000/svg" viewBox="0 0 96 120" x="0px" y="0px"><title>21 Message, chat, Communication</title><g data-name="21 Message, chat, Communication"><path d="M74,45.5h2v21a7,7,0,0,1-7,7H40L24.61,85.29a1,1,0,0,1-1.05.11,1,1,0,0,1-.56-.9v-11H15a7,7,0,0,1-7-7v-36a7,7,0,0,1,7-7H54v2H15a5,5,0,0,0-5,5v36a5,5,0,0,0,5,5h9a1,1,0,0,1,1,1v10L39,71.71a1,1,0,0,1,.61-.21H69a5,5,0,0,0,5-5Zm16-22H76V9.5H74v14H60v2H74v14h2v-14H90Z"/></g><text x="0" y="111" fill="#000000" font-size="5px" font-weight="bold" font-family="'Helvetica Neue', Helvetica, Arial-Unicode, Arial, Sans-serif">Created by Stockes Design</text><text x="0" y="116" fill="#000000" font-size="5px" font-weight="bold" font-family="'Helvetica Neue', Helvetica, Arial-Unicode, Arial, Sans-serif">from the Noun Project</text></svg>