<!-- Generated by IcoMoon.io -->
<svg version="1.1" xmlns="http://www.w3.org/2000/svg" width="32" height="32" viewBox="0 0 32 32">
<title>codewars</title>
<path fill="#ad2c27" d="M1.013 16.267l-0.107-0.053c-0.24-0.133-0.427-0.333-0.56-0.587-0.187-0.347-0.267-0.667-0.267-1l0.027-0.173c0-0.267 0.067-0.507 0.187-0.733l0.107-0.2c0.053-0.107 0.133-0.2 0.2-0.293 0.080-0.093 0.093-0.213 0.067-0.32l-0.067-0.213c-0.080-0.267-0.133-0.533-0.133-0.8l-0.040-0.16c0-0.293 0.080-0.587 0.267-0.8l0.133-0.173c0.093-0.133 0.24-0.213 0.4-0.267 0.133-0.040 0.227-0.173 0.24-0.333l0.027-0.453c0-0.36 0.173-0.693 0.44-0.933l0.32-0.24c0.067-0.067 0.133-0.133 0.187-0.24 0.067-0.080 0.080-0.187 0.067-0.267-0.027-0.133 0-0.173 0.067-0.187 0.213 0.080 0.347 0.053 0.44-0.053l0.173-0.227 0.48-0.533c0.133-0.133 0.187-0.373 0.107-0.56l-0.16-0.347c-0.027-0.080 0-0.173 0.067-0.2 0.173 0 0.293 0.067 0.347 0.173l0.053 0.093c0.080 0.16 0.267 0.24 0.4 0.173 0.293-0.107 0.533-0.133 0.76-0.133h0.427c0.293 0 0.533-0.2 0.587-0.507 0.053-0.373 0.187-0.667 0.373-0.867 0.2-0.227 0.427-0.4 0.693-0.533 0.347-0.187 0.56-0.453 0.627-0.8 0.093-0.427 0.32-0.733 0.627-0.933l1.013-0.573 0.293-0.173c0.173-0.107 0.333-0.24 0.467-0.4l0.267-0.32c0.133-0.133 0.267-0.227 0.427-0.267 0.133-0.040 0.32-0.067 0.48-0.053l0.533 0.040c0.267 0 0.48 0.067 0.693 0.16l0.133 0.067c0.133 0.053 0.267 0.027 0.333-0.067l0.12-0.067 0.573-0.6c0.133-0.133 0.293-0.187 0.467-0.16s0.347 0.093 0.507 0.173c0.24 0.133 0.44 0.187 0.667 0.187h0.133c0.293 0 0.587 0.040 0.88 0.107l0.2 0.053c0.2 0.053 0.4-0.027 0.533-0.187 0.040-0.067 0.133-0.080 0.187-0.027 0.040 0.027 0.053 0.053 0.067 0.093 0.027 0.267 0.187 0.467 0.4 0.533l0.213 0.067c0.227 0.067 0.427 0.213 0.56 0.4 0.133 0.2 0.293 0.4 0.48 0.533l0.133 0.133c0.133 0.133 0.32 0.187 0.507 0.173h0.787c0.32 0 0.627 0.053 0.933 0.187 0.293 0.133 0.6 0.16 0.88 0.053 0.293-0.093 0.6-0.133 0.907-0.093l0.573 0.093c0.267 0.027 0.533 0.16 0.693 0.36l0.067 0.067c0.133 0.133 0.267 0.307 0.4 0.493 0.080 0.173 0.267 0.267 0.453 0.267h0.827c0.2 0 0.4 0.040 0.56 0.133 0.173 0.133 0.32 0.267 0.453 0.4l0.133 0.173c0.16 0.187 0.24 0.44 0.227 0.707 0 0.213 0.16 0.4 0.373 0.4l0.267 0.027c0.187 0 0.347 0.133 0.44 0.307l0.133 0.267 0.347 0.773c0.053 0.133 0.067 0.267 0.053 0.373 0 0.133 0.040 0.24 0.133 0.293l0.133 0.093c0.173 0.133 0.267 0.333 0.24 0.56l-0.093 0.627-0.027 0.267c-0.027 0.133 0.040 0.307 0.16 0.4 0.2 0.133 0.293 0.307 0.307 0.507v0.267c0 0.133-0.027 0.293-0.133 0.4-0.080 0.107-0.133 0.24-0.133 0.4l0.040 0.307c0 0.213 0.133 0.4 0.267 0.533 0.187 0.133 0.293 0.347 0.32 0.56 0.053 0.333 0.067 0.6 0.067 0.867v0.307c0 0.107 0 0.213 0.040 0.32 0.027 0.093 0.093 0.187 0.173 0.24l0.267 0.2c0.267 0.173 0.453 0.4 0.56 0.707 0.133 0.293 0.173 0.6 0.173 0.907v0.107c0 0.24-0.027 0.493-0.107 0.72-0.067 0.24-0.053 0.467 0.040 0.667 0.107 0.187 0.173 0.4 0.2 0.627 0.053 0.267 0.027 0.533-0.067 0.747l-0.027 0.093c-0.067 0.16-0.173 0.307-0.307 0.427-0.133 0.133-0.267 0.213-0.347 0.307-0.080 0.080-0.133 0.213-0.093 0.333l0.040 0.187c0.067 0.267 0.067 0.533 0 0.773v0.107c-0.053 0.2-0.133 0.373-0.213 0.533-0.093 0.173-0.227 0.307-0.4 0.4l-0.2 0.133c-0.093 0.053-0.16 0.173-0.16 0.293 0 0.133-0.053 0.267-0.133 0.347l-0.2 0.267c-0.133 0.173-0.307 0.32-0.493 0.4-0.187 0.133-0.347 0.267-0.467 0.4-0.133 0.16-0.24 0.347-0.293 0.533-0.053 0.24-0.24 0.373-0.44 0.373h-0.72c-0.187 0-0.36 0.133-0.44 0.293-0.093 0.213-0.187 0.36-0.307 0.493-0.133 0.133-0.213 0.293-0.267 0.48-0.027 0.16-0.16 0.267-0.293 0.213-0.173-0.080-0.347 0-0.427 0.133-0.16 0.267-0.32 0.467-0.493 0.64l-0.093 0.080c-0.173 0.133-0.4 0.24-0.6 0.24-0.24 0-0.36 0.107-0.4 0.267-0.040 0.133-0.067 0.307-0.080 0.453-0.027 0.16-0.080 0.307-0.133 0.44l-0.067 0.080c-0.133 0.2-0.24 0.4-0.373 0.573l-0.053 0.080c-0.173 0.227-0.4 0.4-0.667 0.467-0.32 0.107-0.6 0.133-0.88 0.133h-0.187c-0.133 0-0.267 0.080-0.36 0.213l-0.080 0.133-0.080 0.16-0.173 0.293c-0.133 0.24-0.333 0.4-0.6 0.48-0.267 0.067-0.573 0.093-0.853 0.080l-0.213-0.027c-0.187 0-0.36-0.053-0.533-0.133-0.133-0.053-0.32 0-0.4 0.133-0.133 0.187-0.293 0.293-0.467 0.347l-0.4 0.133c-0.267 0.067-0.56 0.067-0.84 0l-0.213-0.067c-0.133 0-0.267-0.067-0.373-0.133-0.133-0.067-0.267-0.093-0.4-0.080l-0.173 0.027c-0.267 0.027-0.507 0-0.747-0.067l-0.36-0.080c-0.16-0.053-0.307-0.16-0.4-0.307-0.067-0.133-0.213-0.24-0.4-0.267h-0.427c-0.267-0.040-0.507-0.133-0.667-0.333l-0.533-0.507-0.187-0.16-0.293-0.213-0.173-0.133c-0.2-0.133-0.44-0.24-0.693-0.267l-0.8-0.133c-0.080 0-0.133-0.027-0.213-0.040l-0.307-0.067c-0.133-0.027-0.267-0.133-0.36-0.267-0.080-0.133-0.227-0.187-0.36-0.133-0.267 0.107-0.48 0.133-0.693 0.173h-0.187c-0.347 0.027-0.667-0.027-0.987-0.173-0.32-0.133-0.533-0.333-0.733-0.587-0.16-0.227-0.4-0.4-0.693-0.453l-0.373-0.080c-0.267-0.053-0.533-0.16-0.773-0.32-0.267-0.187-0.4-0.36-0.507-0.573-0.107-0.2-0.173-0.427-0.187-0.667v-0.107c-0.027-0.267-0.213-0.507-0.467-0.573-0.307-0.093-0.533-0.227-0.733-0.4-0.187-0.173-0.293-0.427-0.293-0.693l0.027-0.587c0-0.227-0.067-0.427-0.227-0.573-0.16-0.16-0.267-0.36-0.267-0.573l-0.040-0.48c-0.027-0.347-0.093-0.693-0.173-1.040-0.080-0.307 0.040-0.613 0.293-0.76l0.093-0.067c0.133-0.093 0.187-0.267 0.107-0.427l-0.107-0.133c-0.133-0.133-0.267-0.227-0.4-0.267-0.107-0.027-0.133-0.133-0.133-0.2l0.133-0.16c0.080-0.093 0.067-0.24 0-0.32-0.107-0.107-0.16-0.24-0.173-0.373l-0.027-0.933c0-0.187 0.027-0.373 0.080-0.56 0.053-0.16 0-0.347-0.16-0.413zM14.213 14.507c0.093-0.093 0.080-0.267 0-0.333-0.133-0.107-0.227-0.227-0.307-0.36l-0.133-0.213c-0.093-0.173-0.213-0.32-0.347-0.453l-0.027-0.027c-0.133-0.107-0.227-0.24-0.307-0.4-0.067-0.133-0.067-0.267 0-0.4l0.080-0.133c0.080-0.133 0.133-0.32 0.133-0.48v-0.053c0-0.133-0.053-0.267-0.133-0.4-0.053-0.107-0.107-0.24-0.133-0.373v-0.080c-0.040-0.16 0-0.333 0.107-0.467 0.107-0.173 0.187-0.333 0.227-0.533v-0.027c0.053-0.133 0.027-0.307-0.053-0.44s-0.107-0.267-0.053-0.427l0.093-0.267c0.080-0.24 0.2-0.453 0.36-0.64l0.187-0.2 0.133-0.16 0.080-0.080c0.080-0.080 0.093-0.213 0.027-0.32-0.067-0.133-0.107-0.267-0.080-0.4l0.027-0.187c0.040-0.267 0.133-0.533 0.307-0.747l0.053-0.053c0.2-0.267 0.453-0.44 0.747-0.533l0.36-0.133c0.16-0.053 0.267-0.227 0.267-0.4 0-0.213 0.067-0.4 0.187-0.573l0.067-0.067c0.133-0.227 0.293-0.453 0.4-0.693l0.093-0.173c0.027-0.040 0.040-0.093 0.040-0.133 0-0.227-0.133-0.427-0.347-0.44l-0.587-0.040c-0.333-0.027-0.667 0-0.987 0l-1.133 0.133c-0.173 0-0.307 0.133-0.32 0.32 0 0.187-0.133 0.347-0.293 0.4l-0.48 0.133-0.133 0.040-0.4 0.133c-0.293 0.093-0.533 0.307-0.667 0.6l-0.107 0.173c-0.133 0.293-0.36 0.533-0.64 0.707-0.267 0.173-0.4 0.453-0.427 0.773v0.133c-0.027 0.267-0.107 0.533-0.267 0.72l-0.067 0.107c-0.107 0.133-0.133 0.307-0.067 0.453 0.067 0.16 0.107 0.333 0.093 0.507v0.707c0 0.187-0.133 0.347-0.267 0.4-0.187 0.067-0.307 0.213-0.36 0.4l-0.067 0.267c-0.053 0.267 0.040 0.533 0.267 0.693 0.213 0.16 0.347 0.4 0.4 0.693v0.24c0.040 0.267 0.187 0.533 0.427 0.667 0.24 0.16 0.427 0.4 0.533 0.667l0.067 0.213c0.107 0.293 0.347 0.467 0.613 0.493h0.080c0.24 0 0.453 0.133 0.587 0.347s0.347 0.36 0.587 0.4l0.373 0.107c0.227 0.067 0.44 0.187 0.613 0.36l0.027 0.027c0.133 0.107 0.347 0.093 0.467-0.053zM15.733 13.28c0.133 0.080 0.267 0.040 0.32-0.080l0.040-0.067c0.093-0.187 0.213-0.373 0.347-0.533l0.267-0.4c0.040 0 0.053-0.027 0.067-0.053l0.32-0.427c0.133-0.133 0.293-0.227 0.48-0.227 0.173 0 0.32-0.093 0.4-0.267 0.053-0.187 0.133-0.36 0.293-0.507l0.067-0.080c0.133-0.133 0.267-0.2 0.4-0.267 0.173-0.027 0.333-0.053 0.493-0.053h0.4c0.16 0 0.293-0.067 0.373-0.2s0.2-0.227 0.333-0.293l0.133-0.053c0.213-0.093 0.453-0.16 0.693-0.187l0.267-0.027c0.16 0 0.333 0 0.493 0.093 0.133 0.093 0.307 0.080 0.44-0.027l0.093-0.053c0.2-0.133 0.427-0.24 0.667-0.267h0.027c0.267-0.053 0.507-0.053 0.773-0.040h0.133c0.267 0.040 0.493 0.133 0.667 0.333l0.040 0.053c0.133 0.133 0.347 0.24 0.533 0.24h0.227c0.067 0 0.133-0.027 0.173-0.093 0.040-0.040 0.107-0.080 0.173-0.080h0.133c0.187 0 0.36 0.053 0.533 0.107l0.227 0.093c0.213 0.067 0.44 0.133 0.667 0.16h0.16c0.107 0 0.173-0.067 0.173-0.16 0-0.133-0.027-0.267-0.093-0.373l-0.093-0.213c-0.107-0.173-0.187-0.36-0.267-0.533l-0.027-0.067c-0.067-0.133-0.067-0.267 0-0.4v-0.067c0.027-0.107-0.027-0.227-0.133-0.267h-0.107c-0.213-0.067-0.4-0.187-0.533-0.36l-0.133-0.133c-0.133-0.133-0.213-0.333-0.267-0.533-0.067-0.173-0.213-0.307-0.4-0.307h-0.56c-0.2-0.027-0.373-0.133-0.493-0.293l-0.053-0.067c-0.093-0.133-0.173-0.293-0.227-0.453-0.067-0.133-0.213-0.213-0.347-0.173l-0.16 0.053c-0.267 0.093-0.533 0.133-0.8 0.107l-0.213-0.027c-0.227 0-0.44-0.093-0.613-0.227l-0.133-0.093c-0.107-0.080-0.213-0.133-0.333-0.187-0.133-0.053-0.24-0.027-0.32 0.067l-0.067 0.080c-0.133 0.133-0.32 0.24-0.507 0.267l-0.72 0.040c-0.133 0-0.267 0.067-0.36 0.16-0.107 0.093-0.227 0.16-0.36 0.187h-0.027c-0.133 0-0.267 0.093-0.4 0.187v0.027c-0.133 0.133-0.307 0.2-0.48 0.2l-0.053 0.027c-0.16 0-0.32 0-0.48 0.040h-0.16c-0.227 0.040-0.4 0.227-0.453 0.467l-0.053 0.307c-0.040 0.213-0.133 0.4-0.267 0.573-0.133 0.16-0.293 0.267-0.493 0.267h-0.227c-0.133 0.027-0.267 0.173-0.24 0.333 0.027 0.227 0 0.427-0.040 0.627l-0.053 0.227c-0.053 0.2-0.187 0.36-0.36 0.427l-0.080 0.040h-0.027c-0.080 0.053-0.133 0.173-0.067 0.267 0.080 0.133 0.107 0.267 0.093 0.4l-0.040 0.427c0 0.16-0.067 0.307-0.133 0.44-0.080 0.133-0.080 0.267-0.027 0.4l0.133 0.293c0.067 0.133 0.080 0.267 0.040 0.427-0.040 0.133-0.067 0.267-0.053 0.4 0 0.133 0.080 0.267 0.187 0.32l0.027 0.027zM26.267 22.92c0.133 0.133 0.333 0.187 0.493 0.080l0.267-0.173c0.133-0.093 0.24-0.227 0.293-0.4v-0.027l0.133-0.4 0.080-0.133 0.053-0.133 0.053-0.093c0.053-0.107 0.133-0.187 0.267-0.227l0.053-0.027c0.107-0.027 0.173-0.133 0.173-0.24 0-0.133 0.067-0.24 0.133-0.333l0.107-0.093 0.267-0.347v-0.027c0.080-0.107 0.133-0.227 0.16-0.36s0-0.267-0.053-0.4l-0.027-0.053c-0.053-0.133-0.080-0.227-0.093-0.347l-0.040-0.373-0.040-0.4c0-0.133 0.053-0.267 0.133-0.4 0.093-0.107 0.16-0.24 0.213-0.373v-0.053l0.027-0.027c0.027-0.133-0.040-0.267-0.16-0.267-0.133-0.067-0.267-0.173-0.307-0.333l-0.040-0.080c-0.067-0.24-0.107-0.48-0.107-0.72l0.027-0.667v-0.040c0-0.227-0.187-0.4-0.4-0.4h-0.027c-0.267 0-0.48-0.080-0.667-0.267l-0.107-0.133-0.267-0.307-0.347-0.4c-0.133-0.187-0.267-0.347-0.44-0.507-0.133-0.133-0.333-0.267-0.533-0.293l-0.267-0.040c-0.133-0.027-0.307-0.093-0.453-0.187-0.107-0.080-0.267-0.053-0.373 0.053l-0.173 0.187-0.080 0.053c-0.093 0.027-0.187-0.027-0.227-0.133-0.053-0.16-0.053-0.347 0.027-0.507v-0.080c0-0.093-0.080-0.16-0.16-0.133h-0.213c-0.24 0-0.48-0.027-0.707-0.133l-0.133-0.053c-0.133-0.067-0.293-0.107-0.44-0.107-0.133 0-0.267 0.027-0.4 0.107l-0.053 0.040c-0.16 0.107-0.347 0.16-0.533 0.173h-0.44c-0.2 0-0.4 0.067-0.533 0.173-0.173 0.107-0.36 0.173-0.56 0.213l-0.36 0.053c-0.16 0.040-0.333 0.107-0.48 0.227-0.133 0.133-0.32 0.213-0.493 0.267l-0.067 0.027c-0.213 0.067-0.4 0.2-0.533 0.4l-0.16 0.16c-0.093 0.133-0.093 0.293 0 0.427 0.080 0.133 0.24 0.173 0.4 0.133l0.2-0.080c0.107-0.040 0.227 0 0.32 0.053 0.080 0.067 0.2 0.107 0.32 0.093l0.333-0.040c0.187 0 0.373 0 0.56 0.053 0.2 0.067 0.373 0.133 0.533 0.267s0.333 0.187 0.533 0.213 0.4 0.067 0.587 0.133l0.133 0.027c0.133 0.040 0.24 0.133 0.32 0.267 0.067 0.107 0.133 0.267 0.133 0.4v0.040c0 0.16 0.133 0.267 0.267 0.267h0.080c0.213 0 0.44 0.027 0.667 0.093l0.093 0.040c0.133 0.053 0.267 0.133 0.36 0.267 0.107 0.133 0.173 0.267 0.213 0.4l0.040 0.187c0.040 0.2 0.053 0.4 0.053 0.613v0.067c0 0.133 0.093 0.267 0.24 0.32 0.133 0.027 0.293 0.080 0.44 0.16l0.067 0.027c0.173 0.107 0.347 0.24 0.48 0.4l0.067 0.093c0.173 0.2 0.267 0.453 0.267 0.707v0.093c0 0.2-0.040 0.4-0.107 0.587-0.053 0.16 0 0.347 0.173 0.4l0.093 0.067c0.2 0.080 0.373 0.227 0.507 0.4 0.133 0.2 0.187 0.427 0.187 0.667v0.4c-0.027 0.133-0.067 0.24-0.133 0.333s-0.067 0.227 0 0.32zM17.733 16.093h-0.027c-0.053 0-0.080 0.067-0.067 0.133l0.053 0.267c0.053 0.213 0.080 0.427 0.107 0.64s0.133 0.4 0.293 0.533h0.053c0.2 0.16 0.32 0.4 0.333 0.64v0.667c-0.027 0.133 0 0.267 0.080 0.373l0.067 0.067c0.133 0.16 0.187 0.347 0.2 0.533l0.040 0.733c0 0.173-0.107 0.32-0.267 0.347l-0.133 0.027c-0.093 0-0.133 0.107-0.133 0.2 0 0.107 0.040 0.227 0.080 0.333v0.027c0.040 0.133 0.053 0.267 0.040 0.4l-0.053 0.36c-0.053 0.267-0.133 0.507-0.267 0.747l-0.093 0.16c-0.067 0.133-0.16 0.213-0.267 0.267-0.133 0.053-0.227 0.16-0.267 0.293l-0.107 0.48c-0.067 0.267-0.187 0.533-0.347 0.8h-0.027c-0.16 0.213-0.36 0.4-0.6 0.533l-0.16 0.107-0.4 0.2c-0.133 0.053-0.213 0.173-0.24 0.32l-0.067 0.44c-0.040 0.267-0.133 0.493-0.32 0.667l-0.173 0.2-0.2 0.2-0.2 0.213c-0.16 0.187-0.4 0.267-0.667 0.227l-0.48-0.093-0.44-0.053h-0.12c-0.053 0.053-0.067 0.133-0.027 0.213 0.093 0.16 0.24 0.267 0.4 0.267l0.293 0.053c0.133 0 0.293 0.067 0.427 0.133 0.133 0.093 0.267 0.16 0.427 0.2h0.027c0.173 0.067 0.36 0.080 0.533 0.067l0.2-0.027c0.227-0.027 0.44 0 0.627 0.080l0.16 0.053c0.067 0.027 0.173 0 0.24-0.067 0.080-0.080 0.16-0.133 0.267-0.173l0.107-0.027c0.173-0.053 0.347-0.080 0.533-0.080h0.107c0.16 0 0.307 0.027 0.44 0.107l0.053 0.027c0.093 0.040 0.2 0 0.267-0.080 0.040-0.093 0.133-0.187 0.227-0.267l0.333-0.227 0.32-0.2c0.133-0.093 0.32-0.133 0.48-0.133l0.48-0.040c0.187-0.027 0.347-0.16 0.4-0.347 0.053-0.2 0.133-0.4 0.267-0.573s0.267-0.32 0.4-0.453c0.173-0.133 0.347-0.2 0.533-0.213h0.107c0.213-0.040 0.373-0.24 0.36-0.453v-0.893c0.027-0.133 0.080-0.307 0.16-0.44l0.267-0.4 0.107-0.133c0.080-0.067 0.133-0.16 0.227-0.267l0.133-0.173c0.080-0.133 0.080-0.307-0.027-0.427-0.133-0.133-0.2-0.32-0.227-0.507v-0.053c-0.027-0.213-0.027-0.44 0.040-0.667v-0.067c0.067-0.173 0.16-0.347 0.267-0.507 0.107-0.133 0.093-0.32-0.040-0.427l-0.227-0.2c-0.187-0.16-0.293-0.4-0.32-0.64l-0.027-0.267c0-0.080 0-0.173-0.027-0.267l-0.027-0.2c-0.027-0.227-0.16-0.4-0.347-0.533l-0.093-0.027c-0.133-0.080-0.267-0.2-0.373-0.36-0.107-0.133-0.16-0.32-0.2-0.507l-0.040-0.227c0-0.080-0.053-0.133-0.133-0.173l-0.64-0.2c-0.133-0.027-0.267-0.133-0.36-0.227h-0.027c-0.080-0.107-0.213-0.107-0.293-0.027l-0.133 0.133c-0.027 0.040-0.053 0.053-0.093 0.040-0.080 0-0.133-0.067-0.107-0.133 0.027-0.213-0.053-0.427-0.227-0.56l-0.173-0.133-0.4-0.267c-0.107-0.040-0.267 0-0.32 0.133l-0.053 0.080c0 0.027-0.040 0.040-0.053 0.053-0.053 0-0.133 0-0.133-0.067l-0.040-0.067c-0.040-0.080-0.133-0.133-0.213-0.16zM16.133 17.427l-0.067-0.067c-0.067-0.053-0.133-0.040-0.2 0.027-0.093 0.16-0.173 0.333-0.213 0.507v0.027c-0.040 0.173-0.2 0.293-0.36 0.267h-0.16c-0.187 0-0.333 0.16-0.333 0.347 0 0.24-0.080 0.48-0.227 0.667l-0.080 0.080c-0.133 0.173-0.333 0.293-0.533 0.36l-0.107 0.027c-0.133 0.040-0.24 0.133-0.267 0.293 0 0.133-0.080 0.267-0.187 0.373l-0.133 0.107c-0.16 0.173-0.4 0.267-0.64 0.293l-0.667 0.067c-0.213 0-0.4 0.133-0.533 0.333s-0.333 0.333-0.533 0.36l-0.293 0.027c-0.213 0.027-0.44 0.027-0.667-0.027l-0.133-0.027-0.36-0.093c-0.133-0.040-0.24 0-0.32 0.093l-0.133 0.173c-0.173 0.2-0.427 0.293-0.667 0.267l-0.867-0.107c-0.133 0-0.24-0.067-0.36-0.133-0.133-0.080-0.227-0.173-0.32-0.267l-0.333-0.4c-0.040-0.027-0.107-0.040-0.173-0.027l-0.187 0.080-0.747 0.187c-0.133 0.040-0.307 0-0.44-0.080-0.133-0.107-0.293-0.133-0.453-0.133h-0.173c-0.16 0.040-0.267 0.213-0.213 0.373l0.053 0.267c0.040 0.133 0.027 0.293-0.040 0.427s-0.053 0.267 0.040 0.4l0.080 0.107c0.107 0.16 0.267 0.293 0.4 0.427s0.267 0.267 0.373 0.44l0.2 0.36c0.107 0.187 0.267 0.293 0.48 0.293 0.2 0 0.4 0.067 0.56 0.2l0.4 0.373c0.107 0.093 0.267 0.107 0.373 0.027l0.067-0.027c0.080 0 0.133 0.053 0.133 0.133v0.067c0 0.173 0.133 0.333 0.307 0.4l0.6 0.133c0.213 0.067 0.427 0.133 0.627 0.267h0.107c0.107 0 0.2-0.093 0.187-0.213v-0.467c0-0.133 0.053-0.267 0.16-0.32l0.067-0.027c0.067 0.027 0.133 0.080 0.107 0.133v0.227c0 0.173 0.053 0.333 0.173 0.453 0.133 0.133 0.307 0.16 0.453 0.107 0.16-0.067 0.32-0.080 0.493-0.067l0.493 0.027c0.24 0.027 0.467 0 0.667-0.093 0.24-0.080 0.44-0.187 0.627-0.333l0.080-0.053 0.4-0.36c0.133-0.133 0.307-0.2 0.467-0.2h0.533c0.267-0.027 0.507-0.267 0.533-0.533l0.053-0.267c0-0.173 0.080-0.333 0.2-0.467 0.133-0.133 0.267-0.213 0.4-0.267l0.16-0.067c0.227-0.093 0.4-0.293 0.48-0.533l0.080-0.32c0.067-0.267 0.2-0.533 0.4-0.707l0.027-0.027c0.16-0.133 0.187-0.4 0.080-0.587l-0.040-0.093c-0.093-0.133-0.107-0.333-0.040-0.507 0.067-0.187 0.133-0.347 0.24-0.507l0.133-0.187c0.053-0.107 0.053-0.267-0.027-0.36-0.080-0.107-0.133-0.24-0.133-0.373l-0.027-0.187v-0.453c0.027-0.133 0-0.307-0.040-0.44l-0.053-0.16zM14.227 16.413v-0.040c0-0.133-0.080-0.213-0.187-0.213h-0.347c-0.133 0.027-0.267 0.027-0.373 0h-0.6c-0.307 0-0.6-0.053-0.893-0.133l-0.32-0.080-0.267-0.080-0.6-0.2c-0.32-0.093-0.56-0.307-0.707-0.6l-0.067-0.133c-0.093-0.2-0.293-0.307-0.493-0.267-0.227 0-0.453 0-0.667-0.107l-0.16-0.067c-0.307-0.133-0.533-0.4-0.533-0.76l-0.053-0.36c-0.040-0.187-0.16-0.36-0.32-0.427-0.187-0.080-0.36-0.187-0.533-0.307l-0.067-0.040c-0.2-0.16-0.373-0.373-0.467-0.627l-0.027-0.080c-0.067-0.213-0.080-0.44-0.027-0.667l0.027-0.080c0.053-0.173 0.067-0.347 0.067-0.533 0-0.16-0.067-0.32-0.187-0.44l-0.187-0.173c-0.213-0.173-0.347-0.427-0.36-0.707-0.027-0.293-0.027-0.573 0.027-0.853v-0.080c0-0.16-0.133-0.267-0.267-0.267h-0.040c-0.173 0-0.32 0.107-0.4 0.267-0.067 0.187-0.173 0.333-0.293 0.48l-0.053 0.067-0.4 0.4c-0.133 0.133-0.213 0.333-0.24 0.533s-0.080 0.4-0.16 0.587l-0.027 0.067c-0.067 0.16-0.173 0.307-0.307 0.4-0.133 0.107-0.227 0.267-0.227 0.427l-0.027 0.613c0 0.267-0.040 0.533-0.133 0.8l-0.027 0.107c-0.067 0.173 0 0.36 0.16 0.44l0.56 0.24 0.053 0.027c0.040 0 0.053 0.027 0.067 0.067 0.040 0.053 0 0.133-0.040 0.133l-0.133 0.067c-0.080 0.027-0.133 0.107-0.16 0.2l-0.027 0.133v0.027l-0.133 0.747c-0.027 0.107-0.027 0.227-0.027 0.347 0 0.107 0.067 0.2 0.16 0.24l0.293 0.133c0.133 0.080 0.293 0.173 0.4 0.267l0.133 0.107c0.040 0.053 0.107 0.107 0.16 0.133l0.053 0.053c0.093 0.080 0.16 0.187 0.187 0.307l0.133 0.6c0 0.16 0.133 0.293 0.267 0.333l0.213 0.067c0 0 0.040 0 0.067 0.027l0.267 0.080c0.213 0.067 0.4 0.187 0.56 0.347 0.16 0.133 0.32 0.307 0.453 0.493l0.053 0.053c0.107 0.133 0.267 0.2 0.427 0.16s0.333-0.053 0.507-0.053h0.2c0.133 0 0.307 0.040 0.453 0.133 0.133 0.080 0.307 0.133 0.467 0.2h0.040c0.16 0.067 0.333 0.040 0.467-0.053 0.133-0.107 0.307-0.16 0.48-0.16l0.627 0.040c0.133 0 0.267-0.027 0.333-0.133h0.027l0.227-0.213 0.067-0.067c0.107-0.133 0.267-0.187 0.427-0.2h0.6c0.16 0 0.307-0.133 0.373-0.267s0.2-0.24 0.36-0.267l0.267-0.053c0.107 0 0.2-0.093 0.24-0.213 0.040-0.133 0.107-0.24 0.2-0.32l0.213-0.213c0.133-0.133 0.2-0.267 0.2-0.413z"></path>
</svg>
